<svg width="100" height="97" viewBox="0 0 100 97" fill="none" xmlns="http://www.w3.org/2000/svg">
<path fill-rule="evenodd" clip-rule="evenodd" d="M36.8281 26.0327C36.6943 25.6733 36.3428 25.4336 35.9492 25.4336H28.7061C28.3125 25.4336 27.9619 25.6729 27.8271 26.0317L11.7363 69.0811C11.6328 69.3594 11.6748 69.6694 11.8496 69.9116C12.0244 70.1543 12.3105 70.2988 12.6152 70.2988H21.0459C21.4434 70.2988 21.7969 70.0547 21.9287 69.6904L25.5693 59.5664H38.9707L42.6689 69.6943C42.8008 70.0566 43.1543 70.2988 43.5498 70.2988H51.9814C52.2852 70.2988 52.5713 70.1543 52.7461 69.9121C52.9209 69.6699 52.9629 69.3604 52.8594 69.082L36.8281 26.0327ZM36.8486 51.8696H27.5859L32.3096 38.6738L36.8486 51.8696Z" fill="#FFB800"/>
<path fill-rule="evenodd" clip-rule="evenodd" d="M84.8467 61.5376C84.8428 61.5137 84.8369 61.4897 84.8311 61.4658C84.8174 61.4141 84.7988 61.3633 84.7754 61.314C84.6953 61.1426 84.5635 61.0015 84.3994 60.9077C84.3682 60.8901 84.3359 60.874 84.3027 60.8599C84.2803 60.8501 84.2578 60.8413 84.2344 60.8335L84.1875 60.8193L77.3594 58.8789C76.8936 58.7466 76.4004 58.9829 76.2256 59.4229C75.8193 60.4448 73.6836 63.1475 69.7344 63.1475C66.709 63.1475 64.9463 61.6924 63.8828 60.0669C63.3389 59.2344 62.9834 58.3604 62.7588 57.6274C62.6924 57.4111 62.6377 57.207 62.5918 57.02H85.5283C85.8008 57.02 86.0508 56.9053 86.2236 56.7188C86.2998 56.6357 86.3613 56.5386 86.4033 56.4307C86.417 56.3955 86.4287 56.3594 86.4375 56.3218C86.4766 56.1631 86.502 55.9136 86.5205 55.7017C86.5312 55.582 86.541 55.4502 86.5508 55.312C86.5615 55.1714 86.5713 55.0244 86.5801 54.877C86.5967 54.6118 86.6104 54.3369 86.6211 54.0889C86.6338 53.7964 86.6416 53.5415 86.6416 53.3838C86.6416 47.6621 84.4668 43.3354 81.1963 40.4463C77.9434 37.5718 73.6602 36.166 69.4971 36.166C63.6777 36.166 59.3047 38.4692 56.4023 41.8408C53.5186 45.1904 52.1152 49.5571 52.1152 53.687C52.1152 62.9141 58.9229 70.9048 69.4375 70.9048C79.3936 70.9048 83.541 64.6738 84.7744 62.0698C84.8135 61.9873 84.8389 61.9004 84.8516 61.8125C84.8643 61.7212 84.8623 61.6284 84.8467 61.5376ZM76.4414 49.9292H62.4238C63.1211 46.2378 66.0264 43.8628 69.3789 43.8628C72.6768 43.8628 75.6699 45.9487 76.4414 49.9292Z" fill="#FFB800"/>
<path fill-rule="evenodd" clip-rule="evenodd" d="M1.40137 0C0.62793 0 0 0.609863 0 1.36182V94.8638C0 95.6157 0.62793 96.2256 1.40137 96.2256H97.6475C97.9189 96.2256 98.1729 96.1509 98.3867 96.021C98.4453 95.9858 98.501 95.9463 98.5527 95.9033C98.6484 95.8242 98.7334 95.7329 98.8047 95.6318C98.959 95.4131 99.0488 95.1484 99.0488 94.8638V1.36182C99.0488 1.03271 98.9287 0.730469 98.7285 0.495117C98.5957 0.338867 98.4277 0.211914 98.2354 0.125488C98.125 0.0756836 98.0068 0.0395508 97.8838 0.019043C97.8066 0.00634766 97.7275 0 97.6475 0H1.40137ZM90.293 87.7183H8.75684V8.50684H90.293V87.7183Z" fill="#FFB800"/>
</svg>
