<svg width="100" height="97" viewBox="0 0 100 97" fill="none" xmlns="http://www.w3.org/2000/svg">
<path d="M1.98486 1.36182V94.8638H98.2307V1.36182H1.98486ZM92.2774 89.0802H7.93821V7.14544H92.2774V89.0802Z" fill="#FFB800"/>
<path fill-rule="evenodd" clip-rule="evenodd" d="M0.583008 1.36168C0.583008 0.609645 1.21054 0 1.98465 0H98.2306C99.0047 0 99.6322 0.609645 99.6322 1.36168V94.8637C99.6322 95.6157 99.0047 96.2253 98.2306 96.2253H1.98465C1.21054 96.2253 0.583008 95.6157 0.583008 94.8637V1.36168ZM1.98465 94.8637V1.36168H98.2306V94.8637H1.98465ZM9.33964 87.7184H90.8756V8.50699H9.33964V87.7184ZM92.2772 89.08V7.14531H7.938V89.08H92.2772Z" fill="#FFB800"/>
<path d="M44.8692 25.3447H36.7779L18.8047 71.0907H28.2224L32.5333 59.6864H48.9812L53.3584 71.0907H62.7761L44.8692 25.3447ZM34.0587 53.4366L40.8236 35.4604L47.3231 53.4366H34.0587Z" fill="#FFB800"/>
<path fill-rule="evenodd" clip-rule="evenodd" d="M44.869 24.437C45.2569 24.437 45.6045 24.6699 45.7424 25.0221L63.6493 70.7681C63.7585 71.0471 63.7196 71.3604 63.5452 71.6062C63.3707 71.8519 63.0831 71.9986 62.7759 71.9986H53.3582C52.9681 71.9986 52.619 71.7631 52.4827 71.408L48.3321 60.5943H33.1854L29.0994 71.4037C28.9643 71.7611 28.6141 71.9986 28.2222 71.9986H18.8045C18.4971 71.9986 18.2093 71.8517 18.035 71.6057C17.8606 71.3597 17.8219 71.0461 17.9316 70.7671L35.9048 25.0211C36.0429 24.6694 36.3902 24.437 36.7778 24.437H44.869ZM32.5332 59.6865H48.981L53.3582 71.0908H62.7759L44.869 25.3448H36.7778L18.8045 71.0908H28.2222L32.5332 59.6865ZM34.0586 53.4367H47.3229L40.8234 35.4605L34.0586 53.4367ZM35.3951 52.5289H46.0043L40.8058 38.151L35.3951 52.5289Z" fill="#FFB800"/>
<path d="M75.9738 37.3291H67.0869V71.0909H75.9738V37.3291Z" fill="#FFB800"/>
<path fill-rule="evenodd" clip-rule="evenodd" d="M66.1523 37.3292C66.1523 36.8278 66.5707 36.4214 67.0868 36.4214H75.9737C76.4897 36.4214 76.9081 36.8278 76.9081 37.3292V71.091C76.9081 71.5924 76.4897 71.9988 75.9737 71.9988H67.0868C66.5707 71.9988 66.1523 71.5924 66.1523 71.091V37.3292ZM75.9737 37.3292V71.091H67.0868V37.3292H75.9737Z" fill="#FFB800"/>
<path d="M75.9738 24.0562H67.0869V32.6255H75.9738V24.0562Z" fill="#FFB800"/>
<path fill-rule="evenodd" clip-rule="evenodd" d="M66.1523 24.0562C66.1523 23.5549 66.5707 23.1484 67.0868 23.1484H75.9737C76.4897 23.1484 76.9081 23.5549 76.9081 24.0562V32.6255C76.9081 33.1269 76.4897 33.5333 75.9737 33.5333H67.0868C66.5707 33.5333 66.1523 33.1269 66.1523 32.6255V24.0562ZM75.9737 24.0562V32.6255H67.0868V24.0562H75.9737Z" fill="#FFB800"/>
</svg>
