<svg width="97" height="107" viewBox="0 0 97 107" fill="none" xmlns="http://www.w3.org/2000/svg">
<path fill-rule="evenodd" clip-rule="evenodd" d="M44.6758 106.559L14.2657 97.9774C12.0312 97.3473 10.3941 96.0203 9.33792 94.7451C8.28192 93.4702 7.2856 91.6181 7.08039 89.312M7.08029 89.3109L0.0380167 10.1909L0.0379115 10.1898C-0.450807 4.70017 3.8473 0 9.36058 0H86.7799C92.2803 0 96.5934 4.68742 96.1035 10.1898L96.1033 10.1918L89.0604 89.3198L89.0597 89.3275C88.8507 91.6277 87.8552 93.4766 86.7964 94.7519C85.738 96.0267 84.0983 97.3521 81.8616 97.9789L81.8605 97.9792L51.2265 106.565C49.9735 106.916 48.7903 106.993 47.9485 106.992C47.1058 106.991 45.925 106.911 44.6758 106.559M48.9569 98.4668L79.5921 89.8811C80.1445 89.7263 80.6325 89.1376 80.6844 88.5664L87.7268 9.44417C87.7778 8.87288 87.353 8.40984 86.7799 8.40984H9.36058C8.7874 8.40984 8.3637 8.87288 8.41463 9.44417L15.4571 88.5664C15.5079 89.1376 15.996 89.7275 16.5483 89.8833L46.9579 98.4646C47.5104 98.6203 48.4054 98.6213 48.9569 98.4668Z" fill="#FFB800"/>
<path d="M72.8467 35.2708C72.8455 35.2827 72.8362 35.292 72.8246 35.294C72.8127 35.296 72.8013 35.2898 72.7961 35.2788L51.4424 44.0476C51.1382 44.1725 50.9648 44.4956 51.0281 44.8188C51.0917 45.142 51.3744 45.3751 51.7033 45.3751H68.313C69.1966 45.3751 70.0383 45.7511 70.6292 46.4095C71.2199 47.068 71.5039 47.9468 71.4101 48.8271L68.8149 73.2231C68.6875 74.42 67.8849 75.4368 66.7516 75.8364L49.1216 82.0525C48.4577 82.2868 47.7339 82.2886 47.0683 82.0574L29.5207 75.9664C28.3805 75.5706 27.5712 74.5508 27.443 73.3485L26.2666 62.3001C26.2047 61.72 26.3918 61.141 26.7808 60.7074C27.1701 60.2736 27.7247 60.0258 28.3069 60.0258H33.1899C34.2392 60.0258 35.1192 60.8188 35.2302 61.8641L35.952 68.6553L48.102 72.8874L60.3077 68.6167L61.8005 54.532H27.29C26.2438 54.532 25.3652 53.7434 25.2505 52.7014L24.5934 46.7319C24.4931 45.8214 25.0058 44.9544 25.8506 44.6055L47.9376 35.4804C48.1883 35.3769 48.3307 35.1107 48.2781 34.8444C48.2254 34.5782 47.9926 34.3864 47.7218 34.3864H24.4672C23.7671 34.3864 23.18 33.8566 23.1069 33.1592L22.4342 26.743C22.3937 26.3569 22.5188 25.9716 22.7781 25.6829C23.0374 25.3943 23.4069 25.2295 23.7944 25.2295H72.4525C72.8421 25.2295 73.2132 25.3961 73.4727 25.6872C73.7322 25.9785 73.8555 26.3668 73.8114 26.7547L72.8467 35.2708Z" fill="#FFB800"/>
</svg>
