<svg width="100" height="97" viewBox="0 0 100 97" fill="none" xmlns="http://www.w3.org/2000/svg">
<path d="M2.13232 1.36182V94.8638H98.3782V1.36182H2.13232ZM92.4248 89.0802H8.08568V7.14544H92.4248V89.0802Z" fill="#FFB800"/>
<path fill-rule="evenodd" clip-rule="evenodd" d="M0.730469 1.36168C0.730469 0.609645 1.358 0 2.13211 0H98.378C99.1521 0 99.7797 0.609645 99.7797 1.36168V94.8637C99.7797 95.6157 99.1521 96.2253 98.378 96.2253H2.13211C1.358 96.2253 0.730469 95.6157 0.730469 94.8637V1.36168ZM2.13211 94.8637V1.36168H98.378V94.8637H2.13211ZM9.4871 87.7184H91.023V8.50699H9.4871V87.7184ZM92.4247 89.08V7.14531H8.08546V89.08H92.4247Z" fill="#FFB800"/>
<path d="M39.1398 80.339C44.5675 80.339 48.9725 76.1358 48.9725 70.9568V61.5747H39.1398C33.7122 61.5747 29.3071 65.7779 29.3071 70.9568C29.3071 76.1358 33.7122 80.339 39.1398 80.339Z" fill="#FFB800"/>
<path d="M29.3071 49.7752C29.3071 44.5963 33.7122 40.3931 39.1398 40.3931H48.9725V59.1573H39.1398C33.7122 59.1573 29.3071 54.9541 29.3071 49.7752Z" fill="#FFB800"/>
<path d="M29.3076 29.3123C29.3076 24.1334 33.7127 19.9302 39.1403 19.9302H48.973V38.6945H39.1403C33.7127 38.6945 29.3076 34.4913 29.3076 29.3123Z" fill="#FFB800"/>
<path d="M48.8535 19.9302H58.6863C64.114 19.9302 68.519 24.1334 68.519 29.3123C68.519 34.4913 64.114 38.6945 58.6863 38.6945H48.8535V19.9302Z" fill="#FFB800"/>
<path d="M68.519 49.7752C68.519 54.9541 64.114 59.1573 58.6863 59.1573C53.2586 59.1573 48.8535 54.9541 48.8535 49.7752C48.8535 44.5963 53.2586 40.3931 58.6863 40.3931C64.114 40.3931 68.519 44.5963 68.519 49.7752Z" fill="#FFB800"/>
</svg>
