<svg width="98" height="108" viewBox="0 0 98 108" fill="none" xmlns="http://www.w3.org/2000/svg">
<path d="M73.316 25.4858H25.418C24.8441 25.4858 24.4199 25.9497 24.4698 26.5226L26.9444 54.6426C26.9954 55.2147 27.5019 55.6783 28.0758 55.6783H60.5962C61.1703 55.6783 61.5914 56.141 61.5363 56.7129L60.4923 67.5319C60.437 68.104 59.9421 68.6883 59.3879 68.8369L50.2586 71.2929C49.7044 71.4427 48.805 71.4415 48.2508 71.2918L39.1776 68.838C38.6234 68.6884 38.1305 68.103 38.0775 67.5311L37.5346 61.6865C37.4816 61.1145 36.9721 60.6508 36.3982 60.6508H28.5841C28.01 60.6508 27.5817 61.1146 27.6264 61.6875L28.7058 75.3326C28.7515 75.9045 29.237 76.493 29.7902 76.6457L48.2518 81.746C48.8058 81.8989 49.305 82.0226 49.3674 82.0226C49.4297 82.0226 49.4807 82.0092 49.4807 81.9945C49.4807 81.9799 49.9299 81.8437 50.4833 81.6909L68.7751 76.6459C69.3295 76.493 69.8201 75.9055 69.8731 75.3336L72.5102 46.65C72.5623 46.0779 72.1391 45.6143 71.5652 45.6143H37.2353C36.6603 45.6143 36.1571 45.1494 36.1092 44.5775L35.4333 36.4162C35.3854 35.8431 35.8129 35.3795 36.3868 35.3795H72.4113C72.9852 35.3795 73.4937 34.9158 73.5457 34.3439L74.2612 26.5216C74.3132 25.9495 73.8899 25.4858 73.316 25.4858Z" fill="#FFB800"/>
<path fill-rule="evenodd" clip-rule="evenodd" d="M45.7106 106.679L15.2599 98.0861C13.0251 97.4558 11.3876 96.1285 10.3312 94.8531C9.27492 93.5778 8.27843 91.7254 8.07318 89.4189M8.07308 89.4178L1.02142 10.1923C1.02139 10.1919 1.02135 10.1915 1.02132 10.1911C0.53253 4.70079 4.8312 0 10.3452 0H87.8679C93.369 0 97.6827 4.68804 97.1927 10.1911C97.1926 10.1918 97.1926 10.1925 97.1925 10.1932L90.1402 89.4267L90.1395 89.4344C89.9304 91.735 88.9348 93.5842 87.8757 94.8599C86.8171 96.135 85.177 97.4606 82.9399 98.0876C82.9395 98.0876 82.9392 98.0877 82.9389 98.0878L52.264 106.685C51.0106 107.036 49.8269 107.113 48.9846 107.112C48.1414 107.111 46.9602 107.031 45.7106 106.679M49.9944 98.5869L80.6704 89.9897C81.2236 89.8348 81.7122 89.2452 81.7642 88.6733L88.816 9.44555C88.867 8.8735 88.4417 8.40984 87.8679 8.40984H10.3452C9.7713 8.40984 9.34704 8.8735 9.39804 9.44555L16.4499 88.6733C16.5007 89.2452 16.9895 89.836 17.5426 89.9919L47.9927 98.5846C48.546 98.7406 49.4422 98.7416 49.9944 98.5869Z" fill="#FFB800"/>
</svg>
