<svg width="115" height="108" viewBox="0 0 115 108" fill="none" xmlns="http://www.w3.org/2000/svg">
<path d="M85.3504 48.762C83.601 43.6151 76.4276 43.6151 75.0283 47.8745C73.6288 52.1339 78.3525 54.6185 85.7005 57.1035C93.0485 59.5882 97.5974 66.155 96.7226 72.0115C95.8477 77.868 93.3983 85.4998 78.8775 85.4998C69.802 85.4998 64.7583 79.7455 62.2517 75.43L70.4796 70.4142C70.4796 70.4142 73.2789 76.4485 78.5274 76.4485C83.776 76.4485 85.8753 74.6738 85.8753 70.5918C85.8753 65.6225 68.9048 63.8479 66.2806 55.3288C63.6564 46.8097 67.1554 34.7414 79.4019 35.6286C87.0563 36.1833 91.3617 39.9961 93.5145 42.7777L85.3504 48.762Z" fill="#FFB800"/>
<path d="M47.2109 36.5163C47.2109 36.5163 47.2109 66.51 47.2109 70.592C47.2109 74.6738 43.7118 76.8039 40.2128 76.0938C36.7137 75.384 35.1392 71.1245 35.1392 71.1245L27.0914 76.6263C27.0914 76.6263 28.8408 84.7902 39.8629 85.5003C50.885 86.2102 57.183 79.466 57.183 73.7867C57.183 68.1073 57.183 36.5163 57.183 36.5163H47.2109Z" fill="#FFB800"/>
<path d="M10.9071 85.323C16.4146 85.323 20.8793 80.7938 20.8793 75.2069C20.8793 69.6199 16.4146 65.0908 10.9071 65.0908C5.39965 65.0908 0.934959 69.6199 0.934959 75.2069C0.934959 80.7938 5.39965 85.323 10.9071 85.323Z" fill="#FFB800"/>
<path d="M13.1525 0.947368C9.49124 0.947368 6.52321 3.95824 6.52321 7.67235V57.5257C7.91815 57.175 9.37713 56.9889 10.879 56.9889C11.649 56.9889 12.4078 57.0378 13.1525 57.1328V7.67235H107.436V100.328H13.1525V93.4588C12.4078 93.5537 11.649 93.6027 10.879 93.6027C9.37713 93.6027 7.91815 93.4166 6.52321 93.0659V100.328C6.52321 104.042 9.49124 107.053 13.1525 107.053H107.436C111.097 107.053 114.065 104.042 114.065 100.328V7.67235C114.065 3.95824 111.097 0.947368 107.436 0.947368H13.1525Z" fill="#FFB800"/>
<path fill-rule="evenodd" clip-rule="evenodd" d="M84.8769 50.2783L84.4664 49.0705C83.7354 46.9199 81.8799 45.8319 80.0113 45.7371C78.1103 45.6407 76.4446 46.5631 75.9154 48.1738C75.6294 49.0443 75.67 49.7599 75.9342 50.3972C76.2086 51.0594 76.761 51.7239 77.6455 52.3968C79.4352 53.7584 82.319 54.9611 85.9965 56.2048C93.6389 58.7891 98.6094 65.7106 97.647 72.1533C97.2021 75.1316 96.3351 78.753 93.5872 81.6127C90.8185 84.494 86.2971 86.4472 78.8775 86.4472C69.334 86.4472 64.0372 80.3717 61.4459 75.9106L60.9763 75.102L70.8852 69.0614L71.3252 70.0098L71.3258 70.0112L71.3293 70.0186C71.3332 70.0266 71.3397 70.0401 71.3488 70.0587C71.3671 70.0958 71.396 70.1532 71.4353 70.2279C71.5139 70.3774 71.634 70.5957 71.7948 70.8596C72.1173 71.3895 72.5974 72.0933 73.2266 72.7934C74.4994 74.2096 76.2794 75.5011 78.5274 75.5011C81.0876 75.5011 82.6585 75.06 83.5868 74.3101C84.462 73.6032 84.9404 72.4729 84.9404 70.5918C84.9404 70.2679 84.8083 69.91 84.4388 69.4842C84.0609 69.0486 83.4803 68.5972 82.6995 68.1196C81.4334 67.3451 79.809 66.598 78.0087 65.77C77.5724 65.5693 77.1258 65.3639 76.6714 65.1522C74.3835 64.0861 71.9415 62.8774 69.9 61.3754C67.8592 59.8739 66.1286 58.0148 65.3881 55.6111C64.0128 51.1463 64.2279 45.7333 66.4387 41.5076C68.6866 37.211 72.9696 34.2128 79.4686 34.6836C87.4412 35.2614 91.972 39.2495 94.2502 42.1931L94.8499 42.9681L84.8769 50.2783ZM70.4796 70.4142C70.4796 70.4142 70.6317 70.7419 70.9312 71.2445C71.9173 72.8988 74.502 76.4485 78.5274 76.4485C83.776 76.4485 85.8753 74.6738 85.8753 70.5918C85.8753 68.3464 82.4103 66.7532 78.3696 64.8954C73.4679 62.6417 67.719 59.9984 66.2806 55.3288C63.6564 46.8097 67.1554 34.7414 79.4019 35.6286C86.404 36.136 90.6036 39.3699 92.9165 42.0468C93.1319 42.2962 93.331 42.5407 93.5145 42.7777L85.3504 48.762C85.243 48.446 85.1151 48.1494 84.9694 47.872C82.7419 43.6312 76.3417 43.8767 75.0283 47.8745C73.6288 52.1339 78.3525 54.6185 85.7005 57.1035C93.0485 59.5882 97.5974 66.155 96.7226 72.0115C95.8477 77.868 93.3983 85.4998 78.8775 85.4998C70.3577 85.4998 65.3911 80.4286 62.7411 76.2373C62.6583 76.1065 62.5779 75.9765 62.4996 75.8475C62.4143 75.7071 62.3317 75.5678 62.2517 75.43L70.4796 70.4142ZM46.2759 35.5689H58.118V36.5163H57.183H47.2109H46.2759V35.5689ZM47.2109 70.592C47.2109 74.6738 43.7118 76.8039 40.2128 76.0938C37.7195 75.588 36.2034 73.2799 35.5378 71.9949C35.2693 71.4765 35.1392 71.1245 35.1392 71.1245L27.0914 76.6263L26.1778 76.8274L26.0433 76.2L35.5989 69.6674L36.0144 70.7913L36.0147 70.7922L36.0157 70.7949C36.0176 70.7997 36.0209 70.8084 36.0258 70.8206C36.0354 70.8452 36.0511 70.8841 36.0729 70.9355C36.1165 71.0385 36.1841 71.1908 36.2763 71.3779C36.4615 71.7536 36.7415 72.2604 37.119 72.7844C37.8885 73.8526 38.978 74.8771 40.3963 75.1649C41.9161 75.4733 43.3968 75.1569 44.4789 74.3702C45.542 73.5972 46.2759 72.3331 46.2759 70.592V36.5163C46.2759 36.5161 46.2759 36.5163 47.2109 36.5163V70.592ZM27.0914 76.6263C27.0914 76.6263 28.8408 84.7902 39.8629 85.5003C50.885 86.2102 57.183 79.466 57.183 73.7867V36.5163C58.118 36.5163 58.118 36.5161 58.118 36.5163V73.7867C58.118 80.183 51.1808 87.1785 39.8036 86.4458C34.0403 86.0745 30.6144 83.7372 28.6363 81.4162C27.6567 80.2669 27.0471 79.1396 26.6808 78.2937C26.4975 77.8703 26.3744 77.5157 26.2958 77.2614C26.2566 77.1342 26.2284 77.0318 26.2093 76.9583C26.1998 76.9215 26.1926 76.8918 26.1874 76.8699C26.1857 76.8625 26.1842 76.856 26.1829 76.8503L26.1812 76.8427L26.1791 76.8335L26.178 76.8286C26.1779 76.828 26.1778 76.8274 27.0914 76.6263ZM5.94717 58.2719C5.72063 58.0923 5.58825 57.8171 5.58825 57.5257V7.67235C5.58825 3.43605 8.97387 0 13.1525 0H107.436C111.614 0 115 3.43605 115 7.67235V100.328C115 104.564 111.614 108 107.436 108H13.1525C8.97387 108 5.58825 104.564 5.58825 100.328V93.0659C5.58825 92.7744 5.72063 92.4992 5.94717 92.3197C6.17372 92.1401 6.46921 92.0762 6.74836 92.1464C8.07024 92.4787 9.45362 92.6553 10.879 92.6553C11.6099 92.6553 12.3297 92.6089 13.0358 92.5188C13.302 92.4849 13.5697 92.5685 13.771 92.7483C13.9722 92.9281 14.0875 93.1869 14.0875 93.4588V99.3803H106.501V8.61972H14.0875V57.1328C14.0875 57.4046 13.9722 57.6634 13.771 57.8433C13.5697 58.0231 13.302 58.1067 13.0358 58.0727C12.3297 57.9827 11.6099 57.9363 10.879 57.9363C9.45362 57.9363 8.07024 58.1128 6.74836 58.4452C6.46921 58.5154 6.17372 58.4515 5.94717 58.2719ZM13.1525 57.1328C12.8432 57.0933 12.5315 57.0618 12.2175 57.0385C11.7756 57.0056 11.3292 56.9889 10.879 56.9889C9.70937 56.9889 8.56577 57.1017 7.45817 57.3173C7.14353 57.3786 6.8318 57.4481 6.52321 57.5257V7.67235C6.52321 3.95824 9.49124 0.947368 13.1525 0.947368H107.436C111.097 0.947368 114.065 3.95824 114.065 7.67235V100.328C114.065 104.042 111.097 107.053 107.436 107.053H13.1525C9.49124 107.053 6.52321 104.042 6.52321 100.328V93.0659C6.8318 93.1434 7.14353 93.213 7.45817 93.2742C8.56577 93.4898 9.70937 93.6027 10.879 93.6027C11.3292 93.6027 11.7756 93.5859 12.2175 93.5531C12.5315 93.5297 12.8432 93.4982 13.1525 93.4588V100.328H107.436V7.67235H13.1525V57.1328ZM21.8143 75.2069C21.8143 81.316 16.932 86.2704 10.9071 86.2704C4.88228 86.2704 0 81.316 0 75.2069C0 69.0977 4.88228 64.1434 10.9071 64.1434C16.932 64.1434 21.8143 69.0977 21.8143 75.2069ZM10.9071 85.323C16.4146 85.323 20.8793 80.7938 20.8793 75.2069C20.8793 69.6199 16.4146 65.0908 10.9071 65.0908C5.39965 65.0908 0.934959 69.6199 0.934959 75.2069C0.934959 80.7938 5.39965 85.323 10.9071 85.323Z" fill="#FFB800"/>
</svg>
