<svg width="100" height="97" viewBox="0 0 100 97" fill="none" xmlns="http://www.w3.org/2000/svg">
<path d="M65.1648 64.6759C61.9363 64.6759 57.8061 63.2778 55.8036 62.1104L53.8701 69.6669C56.5108 71.065 60.5907 72.038 65.1648 72.038C75.1587 72.038 80.3213 67.3872 80.3213 61.0468C80.2461 56.0554 77.4613 52.7787 70.8094 50.5721C66.5355 49.1009 65.1898 48.2679 65.1898 46.6753C65.1898 44.9425 66.6794 43.8968 69.3201 43.8968C72.3237 43.8968 75.3086 45.0156 76.8977 45.8482L78.8254 38.5533C76.6788 37.5076 73.0372 36.6079 68.9508 36.6079C60.3025 36.6079 54.727 41.4045 54.727 47.721C54.6518 51.7575 57.4368 55.5817 64.6769 57.9341C68.7315 59.2655 69.8079 60.0921 69.8079 61.8249C69.8081 63.5635 68.4376 64.6759 65.1648 64.6759Z" fill="#FFB800"/>
<path fill-rule="evenodd" clip-rule="evenodd" d="M55.6245 61.691C55.7613 61.6358 55.9169 61.647 56.0439 61.721C57.0035 62.2804 58.4989 62.9083 60.1597 63.3962C61.8204 63.8841 63.6121 64.2217 65.1648 64.2217C66.7601 64.2217 67.8114 63.9483 68.4514 63.5265C69.0615 63.1244 69.3407 62.56 69.3406 61.8247C69.3406 61.4376 69.2806 61.1308 69.1529 60.8649C69.0258 60.6003 68.8173 60.3465 68.4749 60.0863C67.7694 59.5501 66.5586 59.0309 64.5276 58.364C60.8568 57.1712 58.2704 55.5912 56.6082 53.759C54.94 51.9202 54.2211 49.8465 54.2598 47.7166C54.2622 41.0747 60.1332 36.1538 68.9507 36.1538C73.0972 36.1538 76.8128 37.0649 79.0348 38.1474C79.2313 38.2431 79.3326 38.4591 79.2779 38.666L77.3502 45.9609C77.3145 46.0961 77.2166 46.2079 77.0849 46.2638C76.9533 46.3198 76.8024 46.3138 76.6759 46.2475C75.1282 45.4366 72.2208 44.3505 69.32 44.3505C68.0537 44.3505 67.1282 44.6026 66.5327 45.0078C65.9578 45.399 65.657 45.9534 65.657 46.6751C65.657 47.0067 65.7258 47.2766 65.8716 47.5222C66.0203 47.7728 66.2661 48.0265 66.6645 48.297C67.4758 48.8479 68.822 49.4062 70.9629 50.1432C74.3296 51.2603 76.7731 52.6655 78.3843 54.4673C80.0056 56.2804 80.7495 58.4563 80.7884 61.04L80.7885 61.0466C80.7885 64.3471 79.4392 67.2292 76.7809 69.2756C74.1339 71.3133 70.2307 72.4917 65.1648 72.4917C60.5324 72.4917 56.3714 71.5079 53.6465 70.0653C53.4598 69.9664 53.3654 69.7576 53.4167 69.5572L55.3501 62.0007C55.3859 61.8611 55.4876 61.7461 55.6245 61.691ZM70.8094 50.5719C66.5354 49.1007 65.1898 48.2677 65.1898 46.6751C65.1898 44.9423 66.6793 43.8966 69.32 43.8966C72.0732 43.8966 74.8105 44.8365 76.4717 45.6345C76.6229 45.7071 76.7651 45.7786 76.8977 45.848L78.8254 38.5531C76.6788 37.5074 73.0371 36.6077 68.9507 36.6077C60.3025 36.6077 54.727 41.4043 54.727 47.7207C54.6518 51.7573 57.4367 55.5815 64.6768 57.9339C68.7314 59.2652 69.8078 60.0919 69.8078 61.8247C69.808 63.5633 68.4375 64.6756 65.1648 64.6756C62.1486 64.6756 58.3454 63.4554 56.2254 62.3431C56.0761 62.2648 55.9352 62.187 55.8035 62.1102L53.8701 69.6667C56.5108 71.0648 60.5906 72.0378 65.1648 72.0378C75.1587 72.0378 80.3212 67.387 80.3212 61.0466C80.246 56.0551 77.4612 52.7785 70.8094 50.5719Z" fill="#FFB800"/>
<path d="M29.5274 54.6082C30.5286 54.7482 31.824 54.7968 33.2379 54.7968C39.6709 54.7968 45.1903 53.277 48.8822 49.8847C51.7673 47.2462 53.3313 43.3494 53.3313 38.7719C53.3313 34.188 51.2788 30.2912 48.1751 27.9384C44.971 25.4215 40.1841 24.1875 33.457 24.1875C26.8113 24.1875 22.0933 24.6136 18.7451 25.1603V71.3509H29.5272V54.6082H29.5274ZM29.5463 32.5954C30.3097 32.3823 31.8242 32.1695 34.0206 32.1695C39.4709 32.1695 42.5309 34.7289 42.5557 39.0273C42.5557 43.8299 38.9575 46.675 33.1693 46.675C31.6047 46.675 30.4786 46.6083 29.5463 46.4134V32.5954Z" fill="#FFB800"/>
<path fill-rule="evenodd" clip-rule="evenodd" d="M18.745 25.1606C22.0932 24.6138 26.8112 24.1878 33.457 24.1878C40.1841 24.1878 44.971 25.4218 48.1751 27.9387C51.2787 30.2914 53.3312 34.1883 53.3312 38.7722C53.3312 43.3497 51.7673 47.2465 48.8821 49.885C45.1902 53.2773 39.6709 54.7971 33.2379 54.7971C32.0349 54.7971 30.9176 54.7619 29.9944 54.6652C29.8325 54.6482 29.6767 54.6294 29.5274 54.6085L29.5272 71.3512H18.745V25.1606ZM29.9944 55.1216V71.3512C29.9944 71.6018 29.7852 71.8051 29.5272 71.8051H18.745C18.487 71.8051 18.2778 71.6018 18.2778 71.3512V25.1606C18.2778 24.9389 18.4426 24.7497 18.6676 24.713C22.0468 24.1612 26.7914 23.7339 33.457 23.7339C40.2278 23.7339 45.141 24.9733 48.4656 27.5832C51.6866 30.0265 53.7985 34.057 53.7985 38.7722C53.7985 43.4493 52.199 47.4747 49.2032 50.2148C45.3912 53.7174 39.7348 55.251 33.2379 55.251C32.0518 55.251 30.9338 55.2171 29.9944 55.1216ZM29.5462 32.5956C30.3096 32.3826 31.8242 32.1698 34.0206 32.1698C39.4708 32.1698 42.5309 34.7292 42.5557 39.0276C42.5557 43.8301 38.9575 46.6753 33.1692 46.6753C31.6047 46.6753 30.4785 46.6086 29.5462 46.4137V32.5956ZM42.0885 39.0289C42.0764 36.9916 41.3503 35.413 40.023 34.335C38.6842 33.2477 36.6766 32.6237 34.0206 32.6237C32.1489 32.6237 30.8018 32.7804 30.0134 32.9495V46.0383C30.8282 46.1712 31.8224 46.2214 33.1692 46.2214C35.9899 46.2214 38.219 45.528 39.7343 44.3035C41.2385 43.0879 42.0881 41.3105 42.0885 39.0289Z" fill="#FFB800"/>
<path d="M1.41064 1.36182V94.8638H97.6566V1.36182H1.41064ZM91.7032 89.0802H7.364V7.14544H91.7032V89.0802Z" fill="#FFB800"/>
<path fill-rule="evenodd" clip-rule="evenodd" d="M0.00878906 1.36168C0.00878906 0.609645 0.636324 0 1.41043 0H97.6563C98.4305 0 99.058 0.609645 99.058 1.36168V94.8637C99.058 95.6157 98.4305 96.2253 97.6563 96.2253H1.41043C0.636324 96.2253 0.00878906 95.6157 0.00878906 94.8637V1.36168ZM1.41043 94.8637V1.36168H97.6563V94.8637H1.41043ZM8.76542 87.7184H90.3014V8.50699H8.76542V87.7184ZM91.703 89.08V7.14531H7.36378V89.08H91.703Z" fill="#FFB800"/>
</svg>
