<svg width="119" height="106" viewBox="0 0 119 106" fill="none" xmlns="http://www.w3.org/2000/svg">
<path fill-rule="evenodd" clip-rule="evenodd" d="M97.2409 70.7194C95.9941 71.1424 94.7368 71.5343 93.4701 71.8946C93.6802 72.7389 93.8744 73.5869 94.0528 74.4383C96.907 88.1429 95.0408 99.1833 88.6677 102.818C82.5575 106.303 72.5639 102.669 62.4709 93.9816C61.4763 93.1236 60.5039 92.2409 59.5544 91.3343C58.9186 91.9371 58.2715 92.5282 57.6136 93.1073C47.0358 102.397 36.4332 106.312 30.0668 102.666C23.9623 99.171 22.1541 88.7916 24.7238 75.8038C24.9795 74.5176 25.2681 73.2381 25.5895 71.9664C24.0893 71.5449 22.6404 71.0957 21.2542 70.6179C8.85329 66.3416 0.933333 59.639 0.933333 52.6872C0.933333 45.5068 9.43493 38.3048 22.3522 33.9382C23.3996 33.5858 24.4557 33.2593 25.5195 32.9589C25.1739 31.5889 24.8671 30.2096 24.5994 28.8226C22.1495 16.0604 24.0629 5.92704 30.1513 2.4532C36.4399 -1.13344 46.9944 2.5532 57.2719 11.439C58.0843 12.1415 58.8997 12.8865 59.7162 13.6674C60.7446 12.686 61.8004 11.7331 62.8825 10.8099C72.8377 2.33681 82.6694 -1.08473 88.7527 2.39833C95.0356 5.99575 97.077 16.8818 94.426 30.1265C94.2238 31.1381 93.988 32.1713 93.7236 33.2235C94.4649 33.4398 95.1922 33.6634 95.9019 33.8962C109.33 38.2966 118.067 45.4109 118.067 52.6872C118.067 59.6641 109.892 66.4118 97.2409 70.7194ZM92.3607 37.9853C93.0305 38.1817 93.6878 38.3842 94.328 38.594H94.3286C105.922 42.3939 113.063 48.2084 113.063 52.6872C113.063 56.8917 106.452 62.3489 95.6121 66.0391C94.4913 66.4211 93.3281 66.7826 92.1301 67.1261C90.6889 62.514 88.7657 57.6414 86.4293 52.6626C88.8772 47.5634 90.8781 42.6272 92.3607 37.9853ZM90.0804 13.8741C90.8569 18.0134 90.6895 23.3085 89.5174 29.1651C89.3344 30.0793 89.1218 31.0141 88.8834 31.9678C84.0318 30.8587 78.682 30.046 73.0191 29.5492C69.7999 24.9396 66.5014 20.7884 63.2008 17.2177C64.1868 16.2793 65.1702 15.3923 66.1463 14.5617C74.6593 7.31556 82.5538 4.56827 86.2453 6.68181C87.9798 7.67499 89.3826 10.1546 90.0804 13.8741ZM32.6515 6.74128C34.3876 5.75118 37.26 5.78707 40.8665 7.04688H40.867C44.8804 8.44923 49.4344 11.2365 53.9791 15.1662C54.7398 15.8255 55.4839 16.5032 56.2108 17.1987C52.7905 20.8294 49.3966 24.9755 46.1561 29.4861C40.4798 29.9414 35.1688 30.6967 30.3711 31.7463C30.0501 30.4721 29.7649 29.1894 29.5158 27.8997C27.421 16.9859 28.9565 8.84866 32.6515 6.74128ZM10.3089 45.8001C13.5421 43.062 18.259 40.5526 23.9706 38.6216C24.9269 38.2998 25.891 38.0013 26.8622 37.7264C28.3417 42.4975 30.2918 47.5065 32.6422 52.5667C30.3219 57.5527 28.3992 62.4832 26.9332 67.1989C25.5773 66.8197 24.2328 66.4013 22.9017 65.9442C12.2959 62.2868 5.93684 56.9056 5.93684 52.6872C5.93684 50.7045 7.40388 48.2612 10.3089 45.8001ZM32.5738 98.383C28.8948 96.2766 27.4329 87.8825 29.6345 76.7544V76.7549C29.8725 75.5585 30.1409 74.3682 30.4396 73.1852C35.2876 74.2717 40.5611 75.0829 46.0701 75.5879C49.2825 80.0724 52.6453 84.1871 56.048 87.8015C55.4607 88.3568 54.8744 88.8936 54.2907 89.4064C45.1577 97.4272 36.4928 100.627 32.5738 98.383ZM76.5986 70.2082C77.8278 68.3024 79.0154 66.3706 80.1604 64.4142C81.3241 62.427 82.4475 60.417 83.53 58.3854C85.0115 61.8156 86.2697 65.1618 87.279 68.3618C83.9167 69.1212 80.3362 69.7416 76.5986 70.2082ZM66.449 76.034C64.1754 79.03 61.8639 81.7916 59.556 84.2646C57.2118 81.7629 54.8806 79.0053 52.6049 76.0371C57.2171 76.2506 61.8369 76.2496 66.449 76.034ZM35.5131 58.3889C36.5679 60.4112 37.6703 62.4089 38.8194 64.3804C39.97 66.3536 41.1672 68.2998 42.4102 70.2174C38.697 69.7585 35.1331 69.154 31.791 68.4141C32.8091 65.1684 34.0559 61.8074 35.5131 58.3889ZM31.7221 36.5204C35.0631 35.801 38.6809 35.2273 42.517 34.8038C41.2436 36.7579 40.0174 38.7417 38.8396 40.7536C37.6853 42.7259 36.578 44.7248 35.5188 46.7486C34.0305 43.2568 32.7563 39.8235 31.7221 36.5204ZM52.6469 29.1026C54.9574 26.0912 57.3228 23.2916 59.6944 20.7602C61.9867 23.2568 64.2899 26.0604 66.5708 29.1266C64.2479 29.0241 61.8877 28.9713 59.5 28.9713C57.1761 28.9713 54.8894 29.0154 52.6469 29.1026ZM87.5112 36.7347C86.463 39.982 85.1432 43.3968 83.5777 46.9266C82.4915 44.8557 81.3589 42.809 80.1807 40.788C79.0216 38.7994 77.8227 36.8339 76.5846 34.8925C80.4481 35.3509 84.1147 35.9682 87.5112 36.7347ZM70.2265 34.2926C72.1974 37.2208 74.0715 40.2117 75.8459 43.2604H75.8464C77.6361 46.3264 79.3148 49.4544 80.8794 52.6385C79.2986 55.7905 77.6145 58.8909 75.8298 61.9346C74.0552 64.9703 72.1727 67.9432 70.1861 70.8476C66.7035 71.1101 63.1272 71.2475 59.5005 71.2475C55.8899 71.2475 52.3182 71.1111 48.8346 70.8507C46.8277 67.9418 44.9332 64.9585 43.1552 61.9074V61.9084C41.3766 58.8579 39.7147 55.7423 38.1729 52.5683C39.7186 49.3952 41.3856 46.2812 43.1702 43.2333C44.9632 40.169 46.8728 37.173 48.8948 34.2515C52.3094 34.0326 55.8552 33.9203 59.5 33.9203C63.1598 33.9203 66.7512 34.047 70.2265 34.2926ZM89.1519 75.4372C91.6163 87.2697 90.0907 96.2925 86.1686 98.5301C82.4859 100.631 74.4037 97.6918 65.7559 90.2478C64.8378 89.4554 63.9396 88.6405 63.0624 87.804C66.4101 84.2364 69.7449 80.1144 72.9636 75.5812C78.4886 75.0685 83.7658 74.243 88.6252 73.1339C88.8148 73.8985 88.9904 74.6663 89.1519 75.4372Z" fill="#FFB800"/>
<path d="M59.5 63.0329C65.2769 63.0329 69.9596 58.4007 69.9596 52.6872C69.9596 46.9732 65.2769 42.3411 59.5 42.3411C53.7236 42.3411 49.0405 46.9732 49.0405 52.6872C49.0405 58.4007 53.7236 63.0329 59.5 63.0329Z" fill="#FFB800"/>
<path fill-rule="evenodd" clip-rule="evenodd" d="M94.0528 74.4383C93.8744 73.5869 93.6802 72.7389 93.4701 71.8946C94.7368 71.5343 95.9941 71.1424 97.2409 70.7194C109.892 66.4118 118.067 59.6641 118.067 52.6872C118.067 45.4109 109.33 38.2966 95.9019 33.8962C95.1922 33.6634 94.4649 33.4398 93.7236 33.2235C93.7236 33.2235 93.7236 33.2235 93.7236 33.2235C93.988 32.1713 94.2238 31.1381 94.426 30.1265C97.077 16.8818 95.0356 5.99575 88.7527 2.39833C82.6694 -1.08473 72.8377 2.33681 62.8825 10.8099C61.8004 11.7331 60.7446 12.686 59.7162 13.6674C58.8997 12.8865 58.0843 12.1415 57.2719 11.439C46.9944 2.5532 36.4399 -1.13344 30.1513 2.4532C24.0629 5.92704 22.1495 16.0604 24.5994 28.8226C24.8671 30.2096 25.1739 31.5889 25.5195 32.9589C24.4557 33.2593 23.3996 33.5858 22.3522 33.9382C9.43493 38.3048 0.933333 45.5068 0.933333 52.6872C0.933333 59.639 8.85329 66.3416 21.2542 70.6179C22.6404 71.0957 24.0893 71.5449 25.5895 71.9664C25.2681 73.2381 24.9795 74.5176 24.7238 75.8038C22.1541 88.7916 23.9623 99.171 30.0668 102.666C36.4332 106.312 47.0358 102.397 57.6136 93.1073C58.2715 92.5282 58.9186 91.9371 59.5544 91.3343C60.5039 92.2409 61.4763 93.1236 62.4709 93.9816C72.5639 102.669 82.5575 106.303 88.6677 102.818C95.0408 99.1833 96.907 88.1429 94.0528 74.4383ZM59.5518 92.6059C60.3062 93.3102 61.0745 93.9998 61.8563 94.6742L61.8571 94.6749C66.9616 99.0685 72.0849 102.224 76.755 103.833C81.4125 105.438 85.7513 105.545 89.1351 103.614C92.6561 101.606 94.808 97.629 95.7388 92.5686C96.6728 87.4916 96.4099 81.1813 94.967 74.2532L94.9668 74.2521C94.8463 73.6767 94.7186 73.1028 94.5837 72.5306C95.5767 72.2361 96.5639 71.9224 97.5445 71.5897L97.5455 71.5894C103.944 69.4107 109.267 66.5973 113.009 63.3999C116.741 60.2109 119 56.5479 119 52.6872C119 48.6693 116.593 44.8386 112.624 41.512C108.644 38.175 102.985 35.2475 96.1962 33.0228C96.1961 33.0228 96.1963 33.0228 96.1962 33.0228M59.5518 92.6059C59.1178 93.0073 58.6789 93.4033 58.2351 93.794L58.2343 93.7946C52.8867 98.4912 47.4901 101.868 42.5756 103.604C37.6767 105.334 33.1163 105.477 29.5982 103.462C26.2183 101.527 24.1455 97.7572 23.2255 92.966C22.3029 88.1614 22.5082 82.1957 23.8077 75.6275L23.8079 75.6267C24.009 74.6151 24.2303 73.6075 24.4716 72.6046C23.2606 72.2511 22.0833 71.8787 20.9462 71.4867C14.671 69.3228 9.47265 66.5269 5.82505 63.3452C2.18486 60.1701 0 56.5259 0 52.6872C0 48.7265 2.33877 44.9001 6.18237 41.5664C10.0387 38.2217 15.5111 35.2779 22.0495 33.0676L22.0508 33.0672C22.8301 32.805 23.6142 32.5569 24.4026 32.323C24.1377 31.219 23.8976 30.1093 23.6825 28.9947L23.6823 28.9938C22.4428 22.5365 22.2945 16.6867 23.2586 11.9728C24.2205 7.26907 26.3202 3.5758 29.6839 1.65658C33.1553 -0.323313 37.6772 -0.230099 42.5171 1.39786C47.3732 3.03127 52.6852 6.24942 57.8873 10.747C58.4965 11.2739 59.1067 11.8236 59.7168 12.3932C60.5513 11.6149 61.4032 10.855 62.2718 10.1139L62.2727 10.1132C67.3099 5.82584 72.3606 2.77665 76.9722 1.24816C81.5744 -0.277187 85.8598 -0.322316 89.2214 1.60241C92.6889 3.58784 94.8646 7.50782 95.8553 12.4668C96.8495 17.4427 96.6834 23.6011 95.3417 30.3044C95.1912 31.0575 95.0226 31.8211 94.8381 32.5941C95.2964 32.7335 95.7494 32.8762 96.1962 33.0228M94.1634 39.5098C99.8278 41.3792 104.364 43.7221 107.469 46.1116C110.655 48.5627 112.13 50.8972 112.13 52.6872C112.13 54.3454 110.781 56.5224 107.823 58.8348C104.919 61.1047 100.657 63.3479 95.3075 65.1691C94.4776 65.452 93.6224 65.724 92.7458 65.9859C91.3643 61.7107 89.5839 57.232 87.4591 52.6671C89.6875 47.9892 91.5432 43.4432 92.9689 39.1298C93.329 39.2404 93.6842 39.3529 94.0338 39.4674L94.1634 39.5098ZM92.3607 37.9853C90.8781 42.6272 88.8772 47.5634 86.4293 52.6626C88.7657 57.6414 90.6889 62.514 92.1301 67.1261C93.3281 66.7826 94.4913 66.4211 95.6121 66.0391C106.452 62.3489 113.063 56.8917 113.063 52.6872C113.063 48.2084 105.922 42.3939 94.3286 38.594H94.328C93.6878 38.3842 93.0305 38.1817 92.3607 37.9853ZM66.7561 15.2584C70.9557 11.6838 74.9665 9.25113 78.3392 7.97078C81.7687 6.66883 84.3115 6.63886 85.7766 7.47774C87.1495 8.26383 88.4796 10.4008 89.1626 14.0415C89.9115 18.0336 89.7586 23.2061 88.6017 28.9869C88.4782 29.604 88.3408 30.2316 88.1905 30.8692C83.6611 29.88 78.7296 29.143 73.5386 28.6714C70.5767 24.4572 67.5451 20.6235 64.502 17.2657C65.257 16.5639 66.0092 15.894 66.7561 15.2584ZM63.2008 17.2177C66.5014 20.7884 69.7999 24.9396 73.0191 29.5492C78.682 30.046 84.0318 30.8587 88.8834 31.9678C88.8834 31.9677 88.8834 31.9678 88.8834 31.9678C89.1218 31.0141 89.3344 30.0793 89.5174 29.1651C90.6895 23.3085 90.8569 18.0134 90.0804 13.8741C89.3826 10.1546 87.9798 7.67499 86.2453 6.68181C82.5538 4.56827 74.6593 7.31556 66.1463 14.5617C65.1702 15.3923 64.1868 16.2793 63.2008 17.2177ZM40.6379 7.94345C44.488 9.30509 48.9095 12.0069 53.363 15.8575C53.8845 16.3095 54.3982 16.7704 54.9038 17.2398C51.7532 20.6446 48.6353 24.4715 45.6467 28.6042C40.4462 29.0367 35.5472 29.7216 31.0642 30.6565C30.8327 29.6851 30.6222 28.7089 30.4329 27.7285C29.3994 22.3442 29.2715 17.6916 29.8345 14.161C30.4069 10.5707 31.6512 8.37499 33.1188 7.538C34.492 6.75485 37.0261 6.68175 40.5548 7.91441L40.6379 7.94345ZM30.3711 31.7463C35.1688 30.6967 40.4798 29.9414 46.1561 29.4861C49.3966 24.9755 52.7905 20.8294 56.2108 17.1987C55.4839 16.5032 54.7398 15.8255 53.9791 15.1662C49.4344 11.2365 44.8804 8.44923 40.867 7.04688H40.8665C37.26 5.78707 34.3876 5.75118 32.6515 6.74128C28.9565 8.84866 27.421 16.9859 29.5158 27.8997C29.7649 29.1894 30.0501 30.4721 30.3711 31.7463ZM29.6171 76.8427C27.4407 87.9268 28.9045 96.2822 32.5738 98.383C36.4928 100.627 45.1577 97.4272 54.2907 89.4064C54.8744 88.8936 55.4607 88.3568 56.048 87.8015C52.6453 84.1871 49.2825 80.0724 46.0701 75.5879C40.5611 75.0829 35.2876 74.2717 30.4396 73.1852C30.1482 74.3393 29.8857 75.5003 29.652 76.6671C29.6462 76.6962 29.6403 76.7253 29.6345 76.7544C29.6345 76.7544 29.6345 76.7544 29.6345 76.7544V76.7549C29.6345 76.7549 29.6345 76.7549 29.6345 76.7549C29.6287 76.7842 29.6229 76.8134 29.6171 76.8427ZM30.5504 76.9321C30.727 76.0444 30.9205 75.1602 31.1309 74.2798C35.6453 75.25 40.5023 75.9856 45.5561 76.4645C48.5178 80.5717 51.6064 84.3695 54.7383 87.757C54.3809 88.0863 54.0247 88.4074 53.67 88.7191C49.1601 92.6797 44.7998 95.4188 41.1256 96.8913C37.3844 98.3906 34.6057 98.482 33.0424 97.587C31.5935 96.7574 30.364 94.5127 29.8227 90.8202C29.2914 87.1964 29.464 82.424 30.5504 76.9321ZM38.0102 64.8391C38.836 66.2552 39.6856 67.6575 40.5588 69.0454C37.9403 68.6796 35.4077 68.24 32.988 67.7304C33.7481 65.3939 34.6259 62.9989 35.6148 60.5671C36.3893 62.004 37.1879 63.4283 38.0102 64.8391ZM36.0742 59.454C36.9572 61.1133 37.8724 62.7558 38.8194 64.3804C39.7685 66.008 40.7493 67.6173 41.7614 69.2073C41.9763 69.5449 42.1926 69.8816 42.4102 70.2174C42.0066 70.1675 41.6047 70.1159 41.2046 70.0626C38.2586 69.67 35.4132 69.1847 32.7059 68.6121C32.3992 68.5472 32.0942 68.4812 31.791 68.4141C31.8829 68.1213 31.9766 67.8276 32.0721 67.533C32.9207 64.9164 33.915 62.229 35.0457 59.5007C35.199 59.1308 35.3548 58.7602 35.5131 58.3889C35.6986 58.7447 35.8857 59.0997 36.0742 59.454ZM38.0312 40.2936C37.2039 41.7071 36.4007 43.1343 35.6217 44.5743C34.6027 42.0714 33.6991 39.6076 32.9206 37.2105C35.3679 36.713 37.9609 36.2916 40.6772 35.9483C39.77 37.3815 38.8879 38.8302 38.0312 40.2936ZM32.6387 36.3281C35.3669 35.7706 38.2709 35.3077 41.3201 34.9416C41.7166 34.894 42.1156 34.8481 42.517 34.8038C42.3004 35.1361 42.0852 35.4693 41.8714 35.8034C40.8279 37.4335 39.8171 39.0839 38.8396 40.7536C37.8878 42.3799 36.968 44.0242 36.0807 45.6857C35.8919 46.0392 35.7046 46.3936 35.5188 46.7486C35.3607 46.3778 35.2051 46.0077 35.0519 45.6383C33.8905 42.8376 32.8696 40.0797 32.0028 37.4021C31.9074 37.1072 31.8138 36.8133 31.7221 36.5204C32.0254 36.4551 32.3309 36.391 32.6387 36.3281ZM75.3056 44.1808C76.9085 46.9496 78.4206 49.769 79.8395 52.6344C78.3268 55.6296 76.7201 58.5775 75.0218 61.4739L75.0212 61.4749C73.3327 64.3632 71.5461 67.1942 69.6645 69.9631C66.3478 70.2022 62.9472 70.3272 59.5005 70.3272C56.0685 70.3272 52.6719 70.2031 49.3538 69.9658C47.4536 67.1924 45.6559 64.3516 43.9644 61.4488L43.7569 61.0928C42.1421 58.3041 40.6252 55.4611 39.2089 52.5689C40.6894 49.5542 42.2803 46.5938 43.9785 43.6935C45.6839 40.7789 47.4956 37.9262 49.4097 35.1415C52.6633 34.9426 56.036 34.8407 59.5 34.8407C62.9776 34.8407 66.3922 34.9557 69.7022 35.1789C71.5693 37.97 73.3483 40.8179 75.0364 43.7185L75.3056 44.1808ZM70.2265 34.2926C66.7512 34.047 63.1598 33.9203 59.5 33.9203C55.8552 33.9203 52.3094 34.0326 48.8948 34.2515C46.8728 37.173 44.9632 40.169 43.1702 43.2333C41.3856 46.2812 39.7186 49.3952 38.1729 52.5683C39.4418 55.1806 40.7921 57.7533 42.2218 60.2827C42.5291 60.8263 42.84 61.3679 43.1546 61.9074C43.1546 61.9075 43.1545 61.9073 43.1546 61.9074C43.1547 61.9076 43.155 61.9082 43.1552 61.9084V61.9074C43.1553 61.9076 43.1555 61.9079 43.1556 61.9082C43.1557 61.9082 43.1556 61.9081 43.1556 61.9082C43.4631 62.4357 43.7741 62.9615 44.0885 63.485C45.5921 65.9886 47.1749 68.4451 48.8346 70.8507C52.3182 71.1111 55.8899 71.2475 59.5005 71.2475C63.1272 71.2475 66.7035 71.1101 70.1861 70.8476C72.1727 67.9432 74.0552 64.9703 75.8298 61.9346C77.6145 58.8909 79.2986 55.7905 80.8794 52.6385C79.3148 49.4544 77.6361 46.3264 75.8464 43.2604H75.8459C74.0715 40.2117 72.1974 37.2208 70.2265 34.2926ZM86.1686 98.5301C82.4859 100.631 74.4037 97.6918 65.7559 90.2478C64.8378 89.4554 63.9396 88.6405 63.0624 87.804C66.4101 84.2364 69.7449 80.1144 72.9636 75.5812C78.4886 75.0685 83.7658 74.243 88.6252 73.1339C88.6252 73.1339 88.6252 73.1339 88.6252 73.1339C88.8148 73.8985 88.9904 74.6663 89.1519 75.4372C91.6163 87.2697 90.0907 96.2925 86.1686 98.5301ZM87.9303 74.2329C83.4071 75.2225 78.547 75.9709 73.4803 76.457C70.5163 80.6046 67.453 84.4097 64.3682 87.7611C65.0243 88.3714 65.6919 88.9695 66.3706 89.5552C70.6384 93.2287 74.7318 95.7594 78.1703 97.1135C81.6739 98.4932 84.2519 98.5602 85.7012 97.7335C87.2668 96.8403 88.5753 94.4113 89.1307 90.4555C89.6761 86.5709 89.4547 81.4659 88.2378 75.6231C88.1405 75.1586 88.038 74.6952 87.9303 74.2329ZM10.9172 46.4982C14.0345 43.8582 18.6356 41.3984 24.272 39.4927C24.9257 39.2727 25.5831 39.0638 26.2439 38.866C27.6613 43.2949 29.4705 47.9094 31.6162 52.5664C29.4998 57.1515 27.717 61.6911 26.3144 66.0632C25.2716 65.7573 24.2361 65.4278 23.2086 65.075C17.9774 63.271 13.8398 61.0565 11.0297 58.811C8.17255 56.5279 6.87017 54.3648 6.87017 52.6872C6.87017 51.1156 8.07473 48.9063 10.9172 46.4982ZM10.3089 45.8001C13.5421 43.062 18.259 40.5526 23.9706 38.6216C24.9269 38.2998 25.891 38.0013 26.8622 37.7264C28.3417 42.4975 30.2918 47.5065 32.6422 52.5667C30.3219 57.5527 28.3992 62.4832 26.9332 67.1989C25.5773 66.8197 24.2328 66.4013 22.9017 65.9442C12.2959 62.2868 5.93684 56.9056 5.93684 52.6872C5.93684 50.7045 7.40388 48.2612 10.3089 45.8001ZM78.4478 69.0333C79.3095 67.6599 80.1499 66.2734 80.9687 64.8744C81.8089 63.4395 82.6283 61.9927 83.4266 60.5346C84.4342 62.977 85.3222 65.3675 86.0813 67.6827C83.6412 68.2072 81.089 68.6594 78.4478 69.0333ZM77.2451 69.1973C78.2454 67.6202 79.2173 66.0255 80.1604 64.4142C81.1234 62.7697 82.0587 61.1097 82.9662 59.4347C83.1553 59.0855 83.3433 58.7358 83.53 58.3854C83.6884 58.7522 83.8443 59.1181 83.9976 59.4829C85.1469 62.2181 86.1508 64.8949 86.9962 67.4814C87.0925 67.7761 87.1868 68.0696 87.279 68.3618C86.9761 68.4302 86.6715 68.4975 86.3652 68.5636C83.6375 69.1524 80.7731 69.651 77.8034 70.0517C77.4036 70.1057 77.002 70.1578 76.5986 70.2082C76.8154 69.8721 77.0309 69.5351 77.2451 69.1973ZM59.556 84.2646C59.3451 84.0395 59.1342 83.8123 58.9235 83.5831C57.0454 81.5398 55.1781 79.3346 53.3435 76.9906C53.0967 76.6752 52.8505 76.3574 52.6049 76.0371C53.009 76.0558 53.4131 76.0728 53.8172 76.0882C57.6238 76.2334 61.4347 76.2325 65.2412 76.0855C65.6439 76.07 66.0465 76.0528 66.449 76.034C66.2057 76.3546 65.962 76.6724 65.718 76.9875C63.8886 79.3493 62.0377 81.5566 60.1868 83.5815C59.9765 83.8116 59.7662 84.0393 59.556 84.2646ZM59.5543 82.8988C57.877 81.0706 56.2071 79.1106 54.561 77.0356C57.8748 77.1447 61.1914 77.1439 64.5051 77.033C62.8638 79.1239 61.2082 81.0859 59.5543 82.8988ZM59.0615 21.4423C59.2724 21.2128 59.4834 20.9855 59.6944 20.7602C59.9028 20.9872 60.1114 21.2168 60.32 21.4488C62.1661 23.5026 64.0173 25.7526 65.8563 28.1756C66.0947 28.4897 66.3329 28.8068 66.5708 29.1266C66.1732 29.1091 65.7744 29.093 65.3746 29.0784C63.439 29.0076 61.479 28.9713 59.5 28.9713C57.5912 28.9713 55.7076 29.001 53.8528 29.06C53.4495 29.0728 53.0475 29.087 52.6469 29.1026C52.8911 28.7842 53.136 28.4682 53.3814 28.1547C55.251 25.7662 57.1528 23.5189 59.0615 21.4423ZM59.687 22.1323C61.3412 23.9766 63.0016 25.9824 64.6551 28.1328C62.9535 28.0786 61.2339 28.0509 59.5 28.0509C57.8449 28.0509 56.2083 28.0732 54.5927 28.1173C56.274 25.9971 57.9784 23.995 59.687 22.1323ZM83.5777 46.9266C83.3938 46.576 83.2086 46.2261 83.0221 45.8769C82.1067 44.1635 81.1594 42.4669 80.1807 40.788C79.2211 39.1417 78.2343 37.5113 77.2205 35.8972C77.0097 35.5616 76.7977 35.2267 76.5846 34.8925C76.985 34.94 77.3832 34.9892 77.7793 35.0401C80.8646 35.4366 83.8165 35.9361 86.5967 36.5334C86.9036 36.5993 87.2085 36.6664 87.5112 36.7347C87.4171 37.0264 87.3207 37.3194 87.2222 37.6137C86.3372 40.2579 85.2769 43.0081 84.0548 45.8367C83.8984 46.1987 83.7393 46.562 83.5777 46.9266ZM83.4919 44.7855C84.5674 42.2523 85.5088 39.788 86.3065 37.413C83.8086 36.8791 81.1683 36.4241 78.4138 36.0522C79.293 37.4657 80.1518 38.8915 80.9899 40.3294C81.848 41.8014 82.6822 43.287 83.4919 44.7855ZM59.5 63.9532C65.7951 63.9532 70.8929 58.9064 70.8929 52.6872C70.8929 46.4676 65.7952 41.4207 59.5 41.4207C53.2054 41.4207 48.1071 46.4676 48.1071 52.6872C48.1071 58.9064 53.2054 63.9532 59.5 63.9532ZM69.9596 52.6872C69.9596 58.4007 65.2769 63.0329 59.5 63.0329C53.7236 63.0329 49.0405 58.4007 49.0405 52.6872C49.0405 46.9732 53.7236 42.3411 59.5 42.3411C65.2769 42.3411 69.9596 46.9732 69.9596 52.6872Z" fill="#FFB800"/>
</svg>
