<svg width="110" height="103" viewBox="0 0 110 103" fill="none" xmlns="http://www.w3.org/2000/svg">
<path d="M75.6782 70.7427C79.6344 70.3435 82.6357 67.0164 82.4993 63.024C82.3629 59.0316 78.9523 55.8376 74.8597 55.8376H74.5868C70.3577 55.9707 67.0836 59.4308 67.22 63.5563C67.3565 65.5525 68.175 67.2826 69.4028 68.4803C64.7644 77.3968 57.6705 83.9177 47.0296 89.374C39.7992 93.1003 32.296 94.4311 24.7928 93.4996C18.6538 92.7011 13.879 90.0395 10.8778 85.6478C6.51225 79.1268 6.10299 72.0735 9.78638 65.0202C12.3784 59.9631 16.4711 56.2369 19.0631 54.3737C18.5174 52.6437 17.6989 49.7159 17.2896 47.5866C-2.4916 61.5601 -0.445269 80.4576 5.5573 89.374C10.0592 96.0281 19.1995 100.154 29.2947 100.154C32.0232 100.154 34.7516 99.8875 37.48 99.222C54.9421 95.895 68.175 85.7809 75.6782 70.7427ZM99.6885 54.2407C89.3204 42.3964 74.0411 35.8755 56.5791 35.8755H54.3964C53.1686 33.48 50.5765 31.883 47.7117 31.883H47.4388C43.2098 32.0161 39.9356 35.4762 40.0721 39.6017C40.2085 43.5942 43.619 46.7881 47.7117 46.7881H47.9845C50.9858 46.655 53.5778 44.7919 54.6692 42.2634H57.1248C67.4929 42.2634 77.3153 45.1911 86.1827 50.9136C93.0038 55.3053 97.915 61.0278 100.643 67.948C102.963 73.5374 102.826 78.9937 100.371 83.6516C96.5508 90.7049 90.1389 94.5642 81.6808 94.5642C76.2239 94.5642 71.0399 92.9672 68.3114 91.7695C66.8108 93.1003 64.0823 95.2296 62.1724 96.5604C68.0386 99.222 74.0411 100.686 79.7709 100.686C92.8674 100.686 102.553 93.6326 106.237 86.5793C110.193 78.8606 109.92 65.5525 99.6885 54.2407ZM30.3861 73.0051C30.5225 76.9975 33.9331 80.1915 38.0257 80.1915H38.2986C42.5277 80.0584 45.8018 76.5983 45.6654 72.4727C45.5289 68.4803 42.1184 65.2864 38.0257 65.2864H37.7529C37.48 65.2864 37.0708 65.2864 36.7979 65.4195C31.2046 56.3699 28.8855 46.5219 29.704 35.8755C30.2497 27.8906 32.9781 20.9704 37.7529 15.2479C41.7091 10.3239 49.3488 7.92845 54.5328 7.79537C68.9935 7.52921 75.1325 25.0959 75.5418 32.1492C77.3153 32.5484 80.3165 33.48 82.3629 34.1454C80.7258 12.5863 67.0836 1.40748 53.9871 1.40748C41.7091 1.40748 30.3861 10.0577 25.8842 22.8335C19.6088 39.8679 23.7014 56.2369 31.3411 69.1457C30.6589 70.0773 30.2497 71.5412 30.3861 73.0051Z" fill="#FFB800"/>
<path fill-rule="evenodd" clip-rule="evenodd" d="M74.5868 55.8376H74.8597C78.9523 55.8376 82.3629 59.0316 82.4993 63.024C82.6357 67.0164 79.6344 70.3435 75.6782 70.7427C68.175 85.7809 54.9421 95.895 37.48 99.222C34.7516 99.8875 32.0232 100.154 29.2947 100.154C19.1995 100.154 10.0592 96.0281 5.5573 89.374C-0.31664 80.6487 -2.40208 62.3654 16.0478 48.4916C16.4518 48.1877 16.8657 47.886 17.2896 47.5866C17.3777 48.0451 17.4848 48.5406 17.6041 49.0532C18.0387 50.9212 18.6349 53.0162 19.0631 54.3737C16.4711 56.2369 12.3784 59.9631 9.78638 65.0202C6.10299 72.0735 6.51225 79.1268 10.8778 85.6478C13.879 90.0395 18.6538 92.7011 24.7928 93.4996C32.296 94.4311 39.7992 93.1003 47.0296 89.374C57.6705 83.9177 64.7644 77.3968 69.4028 68.4803C68.175 67.2826 67.3565 65.5525 67.22 63.5563C67.0836 59.4308 70.3577 55.9707 74.5868 55.8376ZM67.7215 68.6772C66.638 67.3119 65.9561 65.5685 65.8248 63.6471L65.8232 63.6237L65.8224 63.6003C65.6615 58.7342 69.5282 54.6321 74.5417 54.4743L74.5643 54.4736H74.8597C79.7008 54.4736 83.7351 58.2454 83.8968 62.9786C84.0484 67.4141 80.9049 71.1765 76.608 71.9861C68.8631 87.0423 55.4086 97.1857 37.7837 100.554C34.938 101.245 32.1053 101.518 29.2947 101.518C18.8606 101.518 9.21562 97.2575 4.39024 90.1254L4.38847 90.1228C-1.98558 80.6545 -3.97275 60.9223 16.4694 46.4818L18.2572 45.219L18.664 47.3352C19.0596 49.3938 19.8616 52.2671 20.3996 53.9726L20.6913 54.8977L19.8926 55.4718C17.4167 57.2515 13.5008 60.8234 11.0371 65.6302L11.0347 65.6348L11.0323 65.6394C7.5765 72.2569 7.95762 78.7875 12.0448 84.8964C14.7846 88.902 19.1647 91.3904 24.9728 92.1469C32.1775 93.0407 39.3908 91.7681 46.3764 88.168L46.379 88.1667C56.4875 82.9833 63.2355 76.8788 67.7215 68.6772ZM47.4388 31.883H47.7117C50.5765 31.883 53.1686 33.48 54.3964 35.8755H56.5791C74.0411 35.8755 89.3204 42.3964 99.6885 54.2407C109.92 65.5525 110.193 78.8606 106.237 86.5793C102.553 93.6326 92.8674 100.686 79.7709 100.686C74.5199 100.686 69.0397 99.4565 63.6455 97.2024C63.1537 96.9968 62.6626 96.7828 62.1724 96.5604C62.5722 96.2819 63.0078 95.9683 63.4606 95.6344C65.1708 94.3732 67.1249 92.8218 68.3114 91.7695C71.0399 92.9672 76.2239 94.5642 81.6808 94.5642C90.1389 94.5642 96.5508 90.7049 100.371 83.6516C102.826 78.9937 102.963 73.5374 100.643 67.948C97.915 61.0278 93.0038 55.3053 86.1827 50.9136C77.3153 45.1911 67.4929 42.2634 57.1248 42.2634H54.6692C53.5778 44.7919 50.9858 46.655 47.9845 46.7881H47.7117C43.619 46.7881 40.2085 43.5942 40.0721 39.6017C39.9356 35.4762 43.2098 32.0161 47.4388 31.883ZM55.5408 43.6274H57.1248C67.2107 43.6274 76.7659 46.4721 85.4112 52.0512L85.4124 52.052C92.0166 56.304 96.7253 61.8101 99.3383 68.4376L99.3427 68.4487L99.3473 68.4598C101.534 73.7288 101.373 78.7634 99.1304 83.0214C95.5519 89.6239 89.6168 93.2002 81.6808 93.2002C76.4693 93.2002 71.4824 91.6657 68.8853 90.5256L68.0492 90.1586L67.3708 90.7602C65.9164 92.05 63.2317 94.146 61.3596 95.4505L59.4079 96.8104L61.5827 97.7972C67.5965 100.526 73.8001 102.05 79.7709 102.05C93.3726 102.05 103.551 94.7266 107.483 87.1985L107.485 87.1939L107.487 87.1893C111.713 78.946 111.323 65.0483 100.744 53.3463C90.0845 41.1741 74.4039 34.5114 56.5791 34.5114H55.209C53.6207 32.08 50.7974 30.519 47.7117 30.519H47.4163L47.3938 30.5197C42.3802 30.6775 38.5136 34.7796 38.6745 39.6457L38.6745 39.6472C38.8363 44.3804 42.8706 48.1521 47.7117 48.1521H48.0163L48.048 48.1507C51.2628 48.0082 54.0747 46.1949 55.5408 43.6274ZM38.2986 80.1915H38.0257C33.9331 80.1915 30.5225 76.9975 30.3861 73.0051C30.2497 71.5412 30.6589 70.0773 31.3411 69.1457C23.7014 56.2369 19.6088 39.8679 25.8842 22.8335C30.3861 10.0577 41.7091 1.40748 53.9871 1.40748C66.7806 1.40748 80.0948 12.0749 82.2301 32.6656C82.2807 33.1533 82.325 33.6466 82.3629 34.1454C81.9202 34.0015 81.4327 33.845 80.9227 33.6843C79.0754 33.1018 76.9316 32.4621 75.5418 32.1492C75.1325 25.0959 68.9935 7.52921 54.5328 7.79537C49.3488 7.92845 41.7091 10.3239 37.7529 15.2479C32.9781 20.9704 30.2497 27.8906 29.704 35.8755C28.8855 46.5219 31.2046 56.3699 36.7979 65.4195C37.0708 65.2864 37.48 65.2864 37.7529 65.2864H38.0257C42.1184 65.2864 45.5289 68.4803 45.6654 72.4727C45.8018 76.5983 42.5277 80.0584 38.2986 80.1915ZM37.5164 63.9243C37.6043 63.9223 37.6807 63.9223 37.7383 63.9224H38.0257C42.8668 63.9224 46.9012 67.6941 47.0629 72.4273L47.063 72.4288C47.2239 77.2949 43.3572 81.397 38.3437 81.5548L38.3211 81.5555H38.0257C33.1978 81.5555 29.1723 77.8043 28.99 73.0893C28.8676 71.6946 29.1484 70.2725 29.7255 69.1353C22.205 56.0941 18.2299 39.5868 24.565 22.381C29.2296 9.15481 41.0177 0.043457 53.9871 0.043457C67.9905 0.043457 82.0802 11.9568 83.7574 34.0447L83.9125 36.0871L81.9207 35.4394C79.8677 34.7719 76.9267 33.8608 75.2273 33.4783L74.205 33.2481L74.1457 32.2263C73.9543 28.9271 72.3889 22.9969 69.1244 17.956C65.8703 12.9312 61.1105 9.0407 54.5644 9.15905C52.154 9.22167 49.1185 9.81532 46.2167 10.9856C43.3083 12.1585 40.6381 13.8681 38.8535 16.0893L38.8455 16.0992L38.8374 16.109C34.258 21.5973 31.627 28.2434 31.0992 35.9662L31.0988 35.9718L31.0984 35.9775C30.3247 46.0411 32.4247 55.3435 37.5164 63.9243Z" fill="#FFB800"/>
</svg>
