<svg width="100" height="97" viewBox="0 0 100 97" fill="none" xmlns="http://www.w3.org/2000/svg">
<path d="M51.5979 25.418H43.7691L35.3656 42.5519L26.8494 25.418H18.7848L30.1979 47.6657L18.3774 70.4468H26.3466L34.9008 52.9881L43.5542 70.4468H52.1798L39.9964 47.3982L51.5979 25.418ZM73.2394 25.418V36.8676C73.2394 36.8676 71.8853 36.8676 70.9835 36.8676C63.2853 36.8676 53.9787 41.7072 53.9787 54.0685C53.9787 63.6247 58.9455 70.8073 69.5247 70.8073C77.3143 70.8073 80.984 68.1805 80.984 68.1805V25.418H73.2394ZM73.232 64.2299C73.232 64.2299 72.3404 64.6125 70.2364 64.6125C68.1328 64.6125 61.6783 63.7088 61.6783 53.7319C61.6783 43.7558 69.0956 42.9559 70.878 42.9559C72.6614 42.9559 73.2318 43.4428 73.2318 43.4428V64.2299H73.232Z" fill="#FFB800"/>
<path fill-rule="evenodd" clip-rule="evenodd" d="M52.7942 24.7078C53.0488 25.1126 53.0682 25.617 52.8454 26.0391L41.5721 47.3976L53.4269 69.8246C53.65 70.2468 53.6309 70.7513 53.3763 71.1563C53.1218 71.5613 52.6685 71.8083 52.1801 71.8083H43.5544C43.016 71.8083 42.5252 71.5087 42.2916 71.0374L34.9083 56.1413L27.6124 71.0319C27.38 71.5062 26.8875 71.8083 26.3468 71.8083H18.3777C17.8911 71.8083 17.4394 71.5632 17.1842 71.1607C16.9291 70.7581 16.9071 70.2559 17.1261 69.8337L28.6303 47.6621L17.5306 26.0252C17.314 25.6031 17.3377 25.1022 17.5932 24.7012C17.8487 24.3002 18.2996 24.0562 18.785 24.0562H26.8497C27.3876 24.0562 27.878 24.3552 28.1119 24.8257L35.3575 39.4033L42.504 24.8321C42.7365 24.3581 43.2289 24.0562 43.7694 24.0562H51.5981C52.0864 24.0562 52.5396 24.303 52.7942 24.7078ZM35.3659 42.5518L26.8497 25.4178H18.785L30.1982 47.6656L18.3777 70.4467H26.3468L34.901 52.988L43.5544 70.4467H52.1801L39.9967 47.3981L51.5981 25.4178H43.7694L35.3659 42.5518ZM71.838 25.4178C71.838 24.6658 72.4655 24.0562 73.2396 24.0562H80.9842C81.7583 24.0562 82.3859 24.6658 82.3859 25.4178V68.1804C82.3859 68.613 82.1742 69.02 81.8156 69.2766L80.9842 68.1804V25.4178H73.2396V36.8674H70.9837C63.2855 36.8674 53.9789 41.707 53.9789 54.0683C53.9789 63.6245 58.9458 70.8071 69.5249 70.8071C77.3145 70.8071 80.9842 68.1804 80.9842 68.1804C81.8156 69.2766 81.8151 69.277 81.8145 69.2775L81.8132 69.2783L81.8105 69.2803L81.8039 69.2849L81.7867 69.2969C81.7734 69.3062 81.7564 69.3178 81.7357 69.3316C81.6942 69.3593 81.6379 69.396 81.5667 69.4403C81.4243 69.5288 81.2221 69.6478 80.9592 69.7868C80.4333 70.0649 79.665 70.4226 78.6474 70.776C76.6097 71.4836 73.5855 72.1688 69.5249 72.1688C63.8811 72.1688 59.5754 70.2369 56.7078 66.8928C53.8722 63.586 52.5773 59.0567 52.5773 54.0683C52.5773 47.5223 55.0583 42.8343 58.6792 39.8011C62.2626 36.7994 66.8555 35.5057 70.9837 35.5057H71.838V25.4178ZM71.8631 64.5237C71.4327 64.575 70.8938 64.6123 70.2366 64.6123C68.133 64.6123 61.6785 63.7086 61.6785 53.7318C61.6785 43.7556 69.0958 42.9557 70.8782 42.9557C72.6616 42.9557 73.232 43.4427 73.232 43.4427V64.2293L73.2322 64.2298C73.2218 64.2342 72.7988 64.4121 71.8631 64.5237ZM71.8303 44.3847C71.5971 44.347 71.2845 44.3174 70.8782 44.3174C70.1398 44.3174 68.1727 44.493 66.4267 45.7093C64.7674 46.8653 63.0801 49.1183 63.0801 53.7318C63.0801 58.4166 64.5799 60.7006 66.0496 61.8542C67.5778 63.0538 69.3494 63.2507 70.2366 63.2507C70.9164 63.2507 71.4427 63.2071 71.8303 63.1546V44.3847Z" fill="#FFB800"/>
<path d="M1.55762 1.36182V94.8638H97.8036V1.36182H1.55762ZM91.8502 89.0802H7.51098V7.14544H91.8502V89.0802Z" fill="#FFB800"/>
<path fill-rule="evenodd" clip-rule="evenodd" d="M0.15625 1.36168C0.15625 0.609645 0.783785 0 1.55789 0H97.8038C98.5779 0 99.2054 0.609645 99.2054 1.36168V94.8637C99.2054 95.6157 98.5779 96.2253 97.8038 96.2253H1.55789C0.783785 96.2253 0.15625 95.6157 0.15625 94.8637V1.36168ZM1.55789 94.8637V1.36168H97.8038V94.8637H1.55789ZM8.91288 87.7184H90.4488V8.50699H8.91288V87.7184ZM91.8504 89.08V7.14531H7.51125V89.08H91.8504Z" fill="#FFB800"/>
</svg>
